<svg xmlns="http://www.w3.org/2000/svg" xmlns:xlink="http://www.w3.org/1999/xlink" viewBox="0 0 74.44 99.5"><defs><style>.cls-1{fill:#262626;}.cls-2{clip-path:url(#clip-path);}.cls-3{clip-path:url(#clip-path-2);}</style><clipPath id="clip-path"><path class="cls-1" d="M37.22,99.5C16.35,99.5,0,90.08,0,78c0-8.5,8.28-16,21.61-19.48a1.76,1.76,0,0,1,2,.83c2.51,4.43,5.36,9.16,8.47,14.06a6.13,6.13,0,0,0,10.34,0c3.11-4.91,6-9.63,8.47-14.06a1.76,1.76,0,0,1,2-.83c13.33,3.51,21.61,11,21.61,19.48C74.44,90.08,58.09,99.5,37.22,99.5Zm-16-37.2C10.41,65.46,3.5,71.56,3.5,78c0,9.74,15.44,18,33.72,18s33.72-8.22,33.72-18c0-6.48-6.91-12.58-17.72-15.74-2.37,4.13-5,8.51-7.87,13a9.63,9.63,0,0,1-16.26,0C26.23,70.81,23.58,66.44,21.21,62.3Z"/></clipPath><clipPath id="clip-path-2"><path class="cls-1" d="M37.22,89.65c-12.92,0-23-6-23-13.57,0-4.75,4-9.06,10.73-11.52A1.76,1.76,0,0,1,27,65.3c1.6,2.68,3.28,5.42,5,8.15a6.13,6.13,0,0,0,10.34,0c1.74-2.75,3.43-5.49,5-8.15a1.74,1.74,0,0,1,2.1-.74C56.24,67,60.25,71.33,60.25,76.08,60.25,83.69,50.13,89.65,37.22,89.65ZM24.79,68.38c-4.42,1.93-7.1,4.81-7.1,7.7,0,5.46,8.94,10.07,19.53,10.07s19.53-4.61,19.53-10.07c0-2.89-2.69-5.77-7.11-7.7-1.37,2.28-2.81,4.61-4.29,6.94a9.63,9.63,0,0,1-16.26,0C27.62,73,26.18,70.67,24.79,68.38Z"/></clipPath></defs><g id="Layer_2" data-name="Layer 2"><g id="contact"><g id="address"><path class="cls-1" d="M37.22,99.5C16.35,99.5,0,90.08,0,78c0-8.5,8.28-16,21.61-19.48a1.76,1.76,0,0,1,2,.83c2.51,4.43,5.36,9.16,8.47,14.06a6.13,6.13,0,0,0,10.34,0c3.11-4.91,6-9.63,8.47-14.06a1.76,1.76,0,0,1,2-.83c13.33,3.51,21.61,11,21.61,19.48C74.44,90.08,58.09,99.5,37.22,99.5Zm-16-37.2C10.41,65.46,3.5,71.56,3.5,78c0,9.74,15.44,18,33.72,18s33.72-8.22,33.72-18c0-6.48-6.91-12.58-17.72-15.74-2.37,4.13-5,8.51-7.87,13a9.63,9.63,0,0,1-16.26,0C26.23,70.81,23.58,66.44,21.21,62.3Z"/><g class="cls-2"><path class="cls-1" d="M37.22,99.5C16.35,99.5,0,90.08,0,78S16.35,56.59,37.22,56.59,74.44,66,74.44,78,58.09,99.5,37.22,99.5Zm0-39.41C18.94,60.09,3.5,68.31,3.5,78S18.94,96,37.22,96s33.72-8.22,33.72-18S55.5,60.09,37.22,60.09Z"/></g><path class="cls-1" d="M37.22,89.65c-12.92,0-23-6-23-13.57,0-4.75,4-9.06,10.73-11.52A1.76,1.76,0,0,1,27,65.3c1.6,2.68,3.28,5.42,5,8.15a6.13,6.13,0,0,0,10.34,0c1.74-2.75,3.43-5.49,5-8.15a1.74,1.74,0,0,1,2.1-.74C56.24,67,60.25,71.33,60.25,76.08,60.25,83.69,50.13,89.65,37.22,89.65ZM24.79,68.38c-4.42,1.93-7.1,4.81-7.1,7.7,0,5.46,8.94,10.07,19.53,10.07s19.53-4.61,19.53-10.07c0-2.89-2.69-5.77-7.11-7.7-1.37,2.28-2.81,4.61-4.29,6.94a9.63,9.63,0,0,1-16.26,0C27.62,73,26.18,70.67,24.79,68.38Z"/><g class="cls-3"><path class="cls-1" d="M37.22,89.65c-12.92,0-23-6-23-13.57S24.3,62.5,37.22,62.5s23,6,23,13.58S50.13,89.65,37.22,89.65Zm0-23.65c-10.59,0-19.53,4.62-19.53,10.08s8.94,10.07,19.53,10.07,19.53-4.61,19.53-10.07S47.81,66,37.22,66Z"/></g><path class="cls-1" d="M37.22,79.79a9.58,9.58,0,0,1-8.13-4.47c-9.68-15.26-21.21-35.63-21.21-46a29.34,29.34,0,0,1,58.68,0c0,10.35-11.54,30.72-21.21,46A9.59,9.59,0,0,1,37.22,79.79Zm0-76.29A25.87,25.87,0,0,0,11.38,29.34c0,7.42,7.34,23.09,20.67,44.11a6.13,6.13,0,0,0,10.34,0c13.33-21,20.67-36.69,20.67-44.11A25.87,25.87,0,0,0,37.22,3.5Z"/><path class="cls-1" d="M37.22,44.88A15.55,15.55,0,1,1,52.76,29.34,15.56,15.56,0,0,1,37.22,44.88Zm0-27.59a12,12,0,1,0,12,12.05A12.07,12.07,0,0,0,37.22,17.29Z"/></g></g></g></svg>