<svg xmlns="http://www.w3.org/2000/svg" viewBox="0 0 100 100"><defs><style>.cls-1{fill:#011520;}.cls-2{fill:none;stroke:#011520;stroke-miterlimit:10;stroke-width:3.6px;}</style></defs><g id="Layer_2" data-name="Layer 2"><g id="custom"><g id="custom-2" data-name="custom"><path class="cls-1" d="M50,3.6A46.4,46.4,0,1,1,3.6,50,46.45,46.45,0,0,1,50,3.6M50,0a50,50,0,1,0,50,50A50,50,0,0,0,50,0Z"/><path class="cls-2" d="M72.25,45.14v9.72a.52.52,0,0,1-.52.52H55.38V71.73a.52.52,0,0,1-.52.52H45.14a.52.52,0,0,1-.52-.52V55.38H28.27a.52.52,0,0,1-.52-.52V45.14a.52.52,0,0,1,.52-.52H44.62V28.27a.52.52,0,0,1,.52-.52h9.72a.52.52,0,0,1,.52.52V44.62H71.73A.52.52,0,0,1,72.25,45.14Z"/></g></g></g></svg>