<svg xmlns="http://www.w3.org/2000/svg" viewBox="0 0 99.5 99.49"><defs><style>.cls-1{fill:#262626;}</style></defs><g id="Layer_2" data-name="Layer 2"><g id="contact"><g id="email"><path class="cls-1" d="M91.67,99.23H7.82a1.65,1.65,0,0,1-.43-.06,9.82,9.82,0,0,1-4.3-2.35,1.75,1.75,0,0,1,0-2.56L43.28,57.11l0,0a9.77,9.77,0,0,1,12.88,0L96.4,94.26A1.73,1.73,0,0,1,97,95.54a1.77,1.77,0,0,1-.55,1.28,9.8,9.8,0,0,1-4.31,2.35A1.54,1.54,0,0,1,91.67,99.23ZM8.06,95.73H91.44a7,7,0,0,0,1-.38L53.85,59.68a6.26,6.26,0,0,0-8.21,0L7.07,95.35A7,7,0,0,0,8.06,95.73Z"/><path class="cls-1" d="M65.19,69.49A1.73,1.73,0,0,1,64,69L53.85,59.68a6.26,6.26,0,0,0-8.23,0L35.5,69a1.74,1.74,0,0,1-2.37,0L12.56,50.09A1.75,1.75,0,0,1,12,48.8V25.74A9.76,9.76,0,0,1,21.75,16h56a9.76,9.76,0,0,1,9.75,9.75V48.8a1.79,1.79,0,0,1-.56,1.29L66.37,69A1.72,1.72,0,0,1,65.19,69.49ZM49.76,54.66a9.72,9.72,0,0,1,6.43,2.42l9,8.28L84,48V25.74a6.26,6.26,0,0,0-6.25-6.25h-56a6.26,6.26,0,0,0-6.25,6.25V48L34.31,65.36l9-8.25A9.74,9.74,0,0,1,49.76,54.66Zm36-5.86h0Z"/><path class="cls-1" d="M89.75,99.49h-80A9.71,9.71,0,0,1,3,96.73a9.66,9.66,0,0,1-3-7v-45a17.81,17.81,0,0,1,5.7-13,.52.52,0,0,1,.11-.1l6.86-5.36a1.75,1.75,0,0,1,2.83,1.38V48L34.31,65.36l9-8.25a9.78,9.78,0,0,1,12.91,0l9,8.28L84,48V27.63a1.75,1.75,0,0,1,2.83-1.38l6.86,5.36a.52.52,0,0,1,.11.1,17.81,17.81,0,0,1,5.7,13v45a9.8,9.8,0,0,1-9.75,9.75ZM8,34.33A14.29,14.29,0,0,0,3.5,44.74v45A6.3,6.3,0,0,0,9.75,96h80A6.3,6.3,0,0,0,96,89.74v-45a14.29,14.29,0,0,0-4.52-10.41l-4-3.11V48.8a1.79,1.79,0,0,1-.56,1.29L66.37,69A1.74,1.74,0,0,1,64,69L53.85,59.68a6.26,6.26,0,0,0-8.23,0L35.5,69a1.74,1.74,0,0,1-2.37,0L12.56,50.09A1.75,1.75,0,0,1,12,48.8V31.22Z"/><path class="cls-1" d="M85.75,50.44a1.69,1.69,0,0,1-.7-.15,1.75,1.75,0,0,1-1-1.6V27.63a1.75,1.75,0,0,1,2.83-1.38l6.86,5.36.11.1A17.71,17.71,0,0,1,98.17,38a1.76,1.76,0,0,1-.43,2L86.94,50A1.74,1.74,0,0,1,85.75,50.44ZM87.5,31.22V44.69l6.93-6.42a13.94,13.94,0,0,0-3-3.94Z"/><path class="cls-1" d="M13.75,50.44A1.74,1.74,0,0,1,12.56,50L1.76,40a1.76,1.76,0,0,1-.43-2A17.71,17.71,0,0,1,5.7,31.71a.52.52,0,0,1,.11-.1l6.86-5.36a1.75,1.75,0,0,1,2.83,1.38V48.69a1.75,1.75,0,0,1-1.05,1.6A1.69,1.69,0,0,1,13.75,50.44ZM5.07,38.27,12,44.69V31.22L8,34.33A13.94,13.94,0,0,0,5.07,38.27Z"/><path class="cls-1" d="M73.1,19.49H26.4a1.75,1.75,0,0,1-1.08-3.13L43.08,2.49a10.18,10.18,0,0,1,13.34,0L74.18,16.36a1.75,1.75,0,0,1,.57,1.95A1.73,1.73,0,0,1,73.1,19.49ZM31.48,16H68L54.23,5.22l-.08-.07a6.69,6.69,0,0,0-8.8,0l-.08.07Z"/><rect class="cls-1" x="24" y="35.89" width="51.5" height="3.7" rx="1.75"/><rect class="cls-1" x="24" y="47.89" width="51.5" height="3.7" rx="1.75"/></g></g></g></svg>