<svg xmlns="http://www.w3.org/2000/svg" viewBox="0 0 99.43 99.43"><defs><style>.cls-1{fill:#262626;}</style></defs><g id="Layer_2" data-name="Layer 2"><g id="contact"><g id="phone"><path class="cls-1" d="M69,99.43c-14,0-31.56-8.14-46.21-22.79C.66,54.51-6.61,25.77,6.58,12.57l5.11-5.11a10.92,10.92,0,0,1,15.44,0l9.73,9.73a10.94,10.94,0,0,1,0,15.44l-8.77,8.76A87.43,87.43,0,0,0,41.28,58.15,87,87,0,0,0,58,71.33l8.77-8.76a10.92,10.92,0,0,1,15.44,0L92,72.29a10.94,10.94,0,0,1,0,15.44l-5.12,5.12h0C82.4,97.3,76.16,99.43,69,99.43ZM19.41,7.77a7.34,7.34,0,0,0-5.24,2.17L9.06,15.05C-2.77,26.88,4.5,53.4,25.26,74.16s47.29,28,59.12,16.21l5.11-5.11a7.43,7.43,0,0,0,0-10.49L79.77,65a7.43,7.43,0,0,0-10.49,0l-9.73,9.73a1.76,1.76,0,0,1-2.11.28A90.68,90.68,0,0,1,38.8,60.62,90,90,0,0,1,24.38,42a1.75,1.75,0,0,1,.28-2.11l9.72-9.73a7.41,7.41,0,0,0,0-10.49L24.66,9.94A7.35,7.35,0,0,0,19.41,7.77ZM85.62,91.61h0Z"/><path class="cls-1" d="M97.57,37.06a1.85,1.85,0,0,1-1.85-1.85,31.53,31.53,0,0,0-31.5-31.5,1.86,1.86,0,1,1,0-3.71A35.25,35.25,0,0,1,99.43,35.21,1.85,1.85,0,0,1,97.57,37.06Zm1.65-1.85h0Z"/><path class="cls-1" d="M85.06,37.06a1.85,1.85,0,0,1-1.85-1.85,19,19,0,0,0-19-19,1.86,1.86,0,1,1,0-3.71,22.73,22.73,0,0,1,22.7,22.7A1.85,1.85,0,0,1,85.06,37.06Zm1.65-1.85h0Z"/></g></g></g></svg>