<svg xmlns="http://www.w3.org/2000/svg" viewBox="0 0 100 100"><defs><style>.cls-1{fill:#011520;}</style></defs><g id="Layer_2" data-name="Layer 2"><g id="price"><g id="price-2" data-name="price"><path class="cls-1" d="M21.36,100H1.56A1.56,1.56,0,0,1,0,98.44V58.77A1.56,1.56,0,0,1,1.56,57.2h19.8a1.57,1.57,0,0,1,1.57,1.57V98.44A1.56,1.56,0,0,1,21.36,100ZM3.12,96.88H19.8V60.33H3.12Z"/><path class="cls-1" d="M44.48,77.28A1.57,1.57,0,0,1,44,74.22l10.16-3.15a1.56,1.56,0,0,1,.68,0l19,2.67A2.21,2.21,0,0,0,76.31,72l.16-.72a2.19,2.19,0,0,0-1.63-2.61L54.83,64a6.14,6.14,0,0,0-2.56-.06L21.65,69.55a1.57,1.57,0,0,1-.57-3.08L51.7,60.82a9.21,9.21,0,0,1,3.84.09l20,4.72a5.33,5.33,0,0,1,4,6.35l-.16.72a5.34,5.34,0,0,1-5.92,4.08L54.77,74.16l-9.82,3A1.53,1.53,0,0,1,44.48,77.28Z"/><path class="cls-1" d="M43.17,92.23a188.83,188.83,0,0,1-22-1.3,1.56,1.56,0,1,1,.37-3.1,183.51,183.51,0,0,0,69.85-5.2l3.86-1a2.19,2.19,0,0,0-.57-4.3L73.61,76.8a1.57,1.57,0,0,1,0-3.13h0l21,.48h0A5.32,5.32,0,0,1,96.08,84.6l-3.86,1.05A186.5,186.5,0,0,1,43.17,92.23Z"/><path class="cls-1" d="M52.65,36.46a9.49,9.49,0,0,1-7.74-3.93,1.56,1.56,0,1,1,2.48-1.9c3.47,4.51,8.45,2,8.66,1.92l.13-.07a3,3,0,0,0,1.67-3.22A4,4,0,0,0,55.16,26l-5.63-1.67c-4-1.19-4.82-4-4.79-6.1a5.69,5.69,0,0,1,1.93-4.37Q48.83,11.94,53,12A8.15,8.15,0,0,1,61,17.5a1.56,1.56,0,0,1-3,.87,5,5,0,0,0-5-3.27,6.43,6.43,0,0,0-4.25,1.09,2.62,2.62,0,0,0-.87,2c0,1.2.29,2.4,2.56,3.07L56.05,23A7,7,0,0,1,61,29a6.22,6.22,0,0,1-3.53,6.37A10.9,10.9,0,0,1,52.65,36.46Z"/><path class="cls-1" d="M53,15.1a1.56,1.56,0,0,1-1.56-1.56V9.09a1.56,1.56,0,0,1,3.12,0v4.45A1.56,1.56,0,0,1,53,15.1Z"/><path class="cls-1" d="M53,41.19a1.56,1.56,0,0,1-1.56-1.56V35.18a1.56,1.56,0,1,1,3.12,0v4.45A1.56,1.56,0,0,1,53,41.19Z"/><path class="cls-1" d="M52.81,49.89A24.95,24.95,0,1,1,77.76,25,25,25,0,0,1,52.81,49.89Zm0-46.77A21.83,21.83,0,1,0,74.63,25,21.85,21.85,0,0,0,52.81,3.12Z"/></g></g></g></svg>