<svg xmlns="http://www.w3.org/2000/svg" viewBox="0 0 100 100.01"><defs><style>.cls-1{fill:#011520;}</style></defs><g id="Layer_2" data-name="Layer 2"><g id="qualty"><g id="quality"><path class="cls-1" d="M45.74,70.56a1.62,1.62,0,0,1-1.16-.49L25.08,50.58a1.64,1.64,0,0,1,0-2.32l6.79-6.79a1.7,1.7,0,0,1,2.32,0L45.74,53,65.81,33a1.62,1.62,0,0,1,2.32,0l6.79,6.78a1.64,1.64,0,0,1,.48,1.16,1.63,1.63,0,0,1-.48,1.16l-28,28A1.61,1.61,0,0,1,45.74,70.56ZM28.56,49.42,45.74,66.6l25.7-25.71L67,36.42,46.89,56.5a1.69,1.69,0,0,1-2.31,0L33,45Z"/><path class="cls-1" d="M50,100a8.75,8.75,0,0,1-6.22-2.58,5.49,5.49,0,0,0-6-1.19,8.81,8.81,0,0,1-11.52-4.72l-.07-.19a5.51,5.51,0,0,0-5.1-3.39h-.2a8.81,8.81,0,0,1-8.8-8.8A5.51,5.51,0,0,0,8.64,74a8.81,8.81,0,0,1-4.8-11.48l.08-.18a5.5,5.5,0,0,0-1.21-6l-.14-.14a8.82,8.82,0,0,1,0-12.45,5.49,5.49,0,0,0,1.19-6A8.81,8.81,0,0,1,8.49,26.24l.19-.08a5.51,5.51,0,0,0,3.38-5.09v-.2a8.81,8.81,0,0,1,8.8-8.8A5.51,5.51,0,0,0,26,8.64,8.81,8.81,0,0,1,37.45,3.85l.19.07a5.5,5.5,0,0,0,6-1.2l.14-.14a8.79,8.79,0,0,1,12.44,0,5.51,5.51,0,0,0,6,1.19A8.81,8.81,0,0,1,73.77,8.49l.07.19a5.51,5.51,0,0,0,5.1,3.39h.2a8.81,8.81,0,0,1,8.8,8.8A5.48,5.48,0,0,0,91.36,26a8.8,8.8,0,0,1,4.8,11.49l-.08.18a5.5,5.5,0,0,0,1.21,6l.14.15a8.81,8.81,0,0,1,0,12.44h0a5.49,5.49,0,0,0-1.19,6,8.81,8.81,0,0,1-4.73,11.51l-.18.08a5.5,5.5,0,0,0-3.39,5.09v.2a8.81,8.81,0,0,1-8.8,8.8A5.5,5.5,0,0,0,74,91.36a8.8,8.8,0,0,1-11.48,4.8l-.18-.07a5.52,5.52,0,0,0-6,1.2l-.14.14A8.75,8.75,0,0,1,50,100ZM39.89,92.53a8.77,8.77,0,0,1,6.21,2.58,5.52,5.52,0,0,0,7.8,0l.15-.14a8.79,8.79,0,0,1,9.56-1.92l.18.08a5.52,5.52,0,0,0,7.21-3,8.76,8.76,0,0,1,8.14-5.46,5.53,5.53,0,0,0,5.52-5.52v-.2a8.78,8.78,0,0,1,5.4-8.12l.18-.07a5.52,5.52,0,0,0,3-7.23,8.76,8.76,0,0,1,1.9-9.61,5.53,5.53,0,0,0,0-7.81L95,46a8.79,8.79,0,0,1-1.91-9.56l.07-.19a5.42,5.42,0,0,0,0-4.22,5.48,5.48,0,0,0-3-3,8.77,8.77,0,0,1-5.45-8.14,5.52,5.52,0,0,0-5.52-5.52h-.2a8.77,8.77,0,0,1-8.12-5.41l-.08-.18a5.53,5.53,0,0,0-7.22-3A8.79,8.79,0,0,1,53.9,4.9a5.5,5.5,0,0,0-7.8,0L46,5A8.79,8.79,0,0,1,36.39,7l-.18-.08a5.53,5.53,0,0,0-7.21,3,8.76,8.76,0,0,1-8.14,5.46,5.52,5.52,0,0,0-5.52,5.52v.2a8.79,8.79,0,0,1-5.4,8.12l-.19.07a5.53,5.53,0,0,0-3,7.23,8.76,8.76,0,0,1-1.9,9.61,5.53,5.53,0,0,0,0,7.81l.14.14A8.77,8.77,0,0,1,7,63.61l-.08.19a5.53,5.53,0,0,0,3,7.2,8.77,8.77,0,0,1,5.45,8.14,5.53,5.53,0,0,0,5.52,5.52h.2a8.77,8.77,0,0,1,8.12,5.41l.08.18a5.53,5.53,0,0,0,7.22,3A8.88,8.88,0,0,1,39.89,92.53ZM96.27,55.07h0Z"/></g></g></g></svg>