<svg xmlns="http://www.w3.org/2000/svg" viewBox="0 0 97.8 100"><defs><style>.cls-1{fill:#282828;}</style></defs><g id="Layer_2" data-name="Layer 2"><g id="stock"><g id="stock-2" data-name="stock"><path class="cls-1" d="M48.9,100a1.62,1.62,0,0,1-.74-.18L.83,74.72A1.56,1.56,0,0,1,0,73.34V26a1.59,1.59,0,0,1,.76-1.35,1.57,1.57,0,0,1,1.54,0l47.33,25.1a1.57,1.57,0,0,1,.84,1.38V98.43a1.59,1.59,0,0,1-.76,1.35A1.67,1.67,0,0,1,48.9,100ZM3.13,72.39l44.2,23.44V52.05L3.13,28.61Z"/><path class="cls-1" d="M48.9,100a1.67,1.67,0,0,1-.81-.22,1.59,1.59,0,0,1-.76-1.35V51.1a1.56,1.56,0,0,1,.83-1.38l47.33-25.1A1.57,1.57,0,0,1,97.8,26V73.34A1.57,1.57,0,0,1,97,74.72L49.63,99.82A1.58,1.58,0,0,1,48.9,100Zm1.57-47.95V95.83L94.66,72.39V28.61ZM96.23,73.34h0Z"/><path class="cls-1" d="M48.9,52.67a1.62,1.62,0,0,1-.74-.18L.83,27.39a1.57,1.57,0,0,1,0-2.78L48.18.17a1.59,1.59,0,0,1,1.44,0L97,24.61A1.58,1.58,0,0,1,97.8,26,1.57,1.57,0,0,1,97,27.39L49.63,52.49A1.58,1.58,0,0,1,48.9,52.67ZM5,26,48.9,49.33,92.85,26,48.9,3.33Z"/><path class="cls-1" d="M70.28,52.13a1.54,1.54,0,0,1-1.56-1.56V40.76L22.23,16.43a1.56,1.56,0,0,1,0-2.78L32.32,8.44a1.59,1.59,0,0,1,1.44,0L81.05,33a1.56,1.56,0,0,1,.85,1.39V45.24a1.56,1.56,0,0,1-.83,1.38L71,52A1.62,1.62,0,0,1,70.28,52.13ZM26.35,15.05,71,38.42a1.55,1.55,0,0,1,.84,1.39V48l6.92-3.67v-9L33,11.6Z"/></g></g></g></svg>